<?xml version="1.0" encoding="UTF-8"?>
<svg width="24px" height="24px" viewBox="0 0 24 24" version="1.1" xmlns="http://www.w3.org/2000/svg" xmlns:xlink="http://www.w3.org/1999/xlink">
    <!-- Generator: Sketch 51.2 (57519) - http://www.bohemiancoding.com/sketch -->
    <title>icon/social/linkedin</title>
    <desc>Created with Sketch.</desc>
    <defs>
        <path d="M6,17.8676071 L6,10.0517609 L8.5968398,10.0517609 L8.5968398,17.8676071 L6,17.8676071 Z M8.92186689,7.35076192 C8.92186689,8.10127902 8.35876801,8.70152385 7.45206907,8.70152385 L7.43518454,8.70152385 C6.56309888,8.70152385 6,8.10127902 6,7.35076192 C6,6.58420453 6.58082763,6 7.46979782,6 C8.35876801,6 8.90582659,6.58420453 8.92186689,7.35076192 Z M17.9824219,13.5696515 L17.9824219,18.0508042 L15.3838936,18.0508042 L15.3838936,13.8693518 C15.3838936,12.8182902 15.008213,12.1015422 14.067745,12.1015422 C13.3501527,12.1015422 12.9229742,12.5852838 12.735556,13.0521409 C12.6654853,13.2184534 12.649445,13.4523041 12.649445,13.6861547 L12.649445,18.0508042 L10.0517609,18.0508042 C10.0517609,18.0508042 10.0863742,10.9677464 10.0517609,10.234958 L12.649445,10.234958 L12.649445,11.3425828 C12.9947335,10.8098761 13.6101744,10.0517609 14.9904842,10.0517609 C16.7000423,10.0517609 17.9824219,11.167828 17.9824219,13.5696515 Z" id="path-1"></path>
    </defs>
    <g id="icon/social/linkedin" stroke="none" stroke-width="1" fill="none" fill-rule="evenodd">
        <polygon id="Shape" points="0 0 24 0 24 24 0 24"></polygon>
        <mask id="mask-2" fill="white">
            <use xlink:href="#path-1"></use>
        </mask>
        <use id="Path" fill="#282C30" xlink:href="#path-1"></use>
    </g>
</svg>