<?xml version="1.0" encoding="UTF-8"?>
<svg width="24px" height="24px" viewBox="0 0 24 24" version="1.1" xmlns="http://www.w3.org/2000/svg" xmlns:xlink="http://www.w3.org/1999/xlink">
    <!-- Generator: Sketch 51.2 (57519) - http://www.bohemiancoding.com/sketch -->
    <title>icon/social/twitter</title>
    <desc>Created with Sketch.</desc>
    <defs>
        <path d="M19.999,6.54 C19.409,6.8 18.779,6.977 18.114,7.057 C18.791,6.65 19.312,6.007 19.557,5.241 C18.923,5.616 18.22,5.889 17.472,6.036 C16.874,5.398 16.022,5 15.076,5 C13.264,5 11.794,6.468 11.794,8.28 C11.794,8.538 11.824,8.79 11.879,9.03 C9.151,8.892 6.732,7.586 5.113,5.602 C4.829,6.085 4.669,6.649 4.669,7.252 C4.669,8.392 5.249,9.395 6.129,9.984 C5.591,9.967 5.084,9.819 4.642,9.574 L4.642,9.614 C4.642,11.204 5.772,12.532 7.275,12.834 C6.999,12.908 6.709,12.948 6.41,12.948 C6.2,12.948 5.994,12.928 5.793,12.89 C6.211,14.194 7.423,15.143 8.86,15.17 C7.736,16.05 6.32,16.574 4.783,16.574 C4.518,16.574 4.257,16.559 4,16.529 C5.453,17.459 7.178,18.003 9.032,18.003 C15.07,18.003 18.372,13.003 18.372,8.665 C18.372,8.522 18.368,8.381 18.362,8.24 C19.002,7.777 19.56,7.2 20,6.54 L19.999,6.54 Z" id="path-1"></path>
    </defs>
    <g id="icon/social/twitter" stroke="none" stroke-width="1" fill="none" fill-rule="evenodd">
        <polygon id="Shape" points="0 0 24 0 24 24 0 24"></polygon>
        <mask id="mask-2" fill="white">
            <use xlink:href="#path-1"></use>
        </mask>
        <use id="Shape" fill="#282C30" xlink:href="#path-1"></use>
    </g>
</svg>