<?xml version="1.0" encoding="UTF-8"?>
<svg width="24px" height="24px" viewBox="0 0 24 24" version="1.1" xmlns="http://www.w3.org/2000/svg" xmlns:xlink="http://www.w3.org/1999/xlink">
    <!-- Generator: Sketch 51.2 (57519) - http://www.bohemiancoding.com/sketch -->
    <title>icon/social/gplus</title>
    <desc>Created with Sketch.</desc>
    <defs>
        <path d="M9.09,11.3620003 L9.09,13.1070003 L11.98,13.1070003 C11.864,13.8570003 11.107,15.3040003 9.093,15.3040003 C7.356,15.3040003 5.938,13.8640003 5.938,12.0890003 C5.938,10.3140003 7.353,8.87400033 9.09,8.87400033 C10.08,8.87400033 10.742,9.29600033 11.12,9.66000033 L12.502,8.33000033 C11.615,7.50000033 10.465,7.00000033 9.092,7.00000033 C6.275,6.99900033 4,9.27300033 4,12.0890003 C4,14.9050003 6.276,17.1790003 9.09,17.1790003 C12.03,17.1790003 13.978,15.1140003 13.978,12.2050003 C13.978,11.8710003 13.942,11.6150003 13.898,11.3620003 L9.09,11.3620003 Z M20,11.3620003 L18.545,11.3620003 L18.545,9.90700033 L17.09,9.90700033 L17.09,11.3620003 L15.636,11.3620003 L15.636,12.8160003 L17.091,12.8160003 L17.091,14.2710003 L18.546,14.2710003 L18.546,12.8160003 L20,12.8160003 L20,11.3620003 Z" id="path-1"></path>
    </defs>
    <g id="icon/social/gplus" stroke="none" stroke-width="1" fill="none" fill-rule="evenodd">
        <polygon id="Shape" points="0 0 24 0 24 24 0 24"></polygon>
        <mask id="mask-2" fill="white">
            <use xlink:href="#path-1"></use>
        </mask>
        <use id="Shape" fill="#282C30" xlink:href="#path-1"></use>
    </g>
</svg>