<?xml version="1.0" encoding="UTF-8"?>
<svg width="24px" height="24px" viewBox="0 0 24 24" version="1.1" xmlns="http://www.w3.org/2000/svg" xmlns:xlink="http://www.w3.org/1999/xlink">
    <!-- Generator: Sketch 51.2 (57519) - http://www.bohemiancoding.com/sketch -->
    <title>icon/social/gplus</title>
    <desc>Created with Sketch.</desc>
    <defs></defs>
    <g id="icon/social/gplus" stroke="none" stroke-width="1" fill="none" fill-rule="evenodd">
        <polygon id="Shape" points="0 0 24 0 24 24 0 24"></polygon>
        <path d="M15,4 L9,4 C6.239,4 4,6.239 4,9 L4,15 C4,17.761 6.239,20 9,20 L15,20 C17.761,20 20,17.761 20,15 L20,9 C20,6.239 17.761,4 15,4 Z M18.5,15 C18.5,16.93 16.93,18.5 15,18.5 L9,18.5 C7.07,18.5 5.5,16.93 5.5,15 L5.5,9 C5.5,7.07 7.07,5.5 9,5.5 L15,5.5 C16.93,5.5 18.5,7.07 18.5,9 L18.5,15 Z" id="Shape" fill="#000000" fill-rule="nonzero"></path>
        <path d="M12,8 C9.791,8 8,9.791 8,12 C8,14.209 9.791,16 12,16 C14.209,16 16,14.209 16,12 C16,9.791 14.209,8 12,8 Z M12,14.5 C10.622,14.5 9.5,13.378 9.5,12 C9.5,10.621 10.622,9.5 12,9.5 C13.378,9.5 14.5,10.621 14.5,12 C14.5,13.378 13.378,14.5 12,14.5 Z" id="Shape" fill="#000000" fill-rule="nonzero"></path>
        <circle id="Oval" fill="#000000" fill-rule="nonzero" cx="16.5" cy="7.5" r="1"></circle>
    </g>
</svg>